<?xml version="1.0" encoding="utf-8"?>
<!-- Generator: Adobe Illustrator 17.0.0, SVG Export Plug-In . SVG Version: 6.00 Build 0)  -->
<!DOCTYPE svg PUBLIC "-//W3C//DTD SVG 1.1//EN" "http://www.w3.org/Graphics/SVG/1.1/DTD/svg11.dtd">
<svg version="1.1" id="Layer_1" xmlns="http://www.w3.org/2000/svg" xmlns:xlink="http://www.w3.org/1999/xlink" x="0px" y="0px"
	 width="265.301px" height="57.253px" viewBox="0 0 265.301 57.253" enable-background="new 0 0 265.301 57.253"
	 xml:space="preserve">
<g>
	<path fill="#80BD01" d="M56.604,39.792l-14.28,8.244c-1.34,0.774-3.095,1.2-4.941,1.2c-1.847,0-3.599-0.427-4.932-1.202
		L4.227,31.633l-2.339,1.35c-2.459,1.42-2.566,3.658-0.029,5.132l31.099,18.073c2.443,1.42,6.402,1.42,8.861,0l14.28-8.245
		c4.539-2.621,6.818-5.46,6.927-8.135c0.007-1.314-0.517-2.541-1.594-3.666C60.225,37.408,58.611,38.633,56.604,39.792z"/>
	<path fill="#29ABE2" d="M60.568,26.331c-1.081,0.97-2.402,1.912-3.964,2.814l-14.28,8.245c-1.34,0.774-3.095,1.2-4.941,1.2
		c-1.847,0-3.599-0.427-4.932-1.201L5.625,21.799l-3.737,2.158c-2.459,1.42-2.566,3.658-0.029,5.132l31.099,18.073
		c2.443,1.42,6.402,1.42,8.861,0l14.28-8.245c4.539-2.621,6.818-5.46,6.927-8.135C63.036,29.155,62.229,27.663,60.568,26.331z"/>
	<path fill="#FFFFFF" d="M56.1,28.271l-14.28,8.245c-2.459,1.42-6.418,1.42-8.861,0L1.859,18.443
		c-2.537-1.474-2.43-3.713,0.029-5.132l14.658-8.463C25.625-0.394,35.248-1.705,42.482,2.5l0.188,0.109
		c5.355,3.112,5.149,6.279,2.3,9.992c4.434-0.71,9.43-0.655,13.94,1.966l0.094,0.055c2.725,1.583,4.034,3.44,4.022,5.515
		C62.917,22.811,60.639,25.651,56.1,28.271"/>
	<g>
		<path fill="#FFFFFF" d="M87.629,8.001h12.58c6.604,0,9.615,4.044,9.615,10.379c0,2.606-0.584,4.987-2.965,7.099
			c2.561,2.426,2.965,4.807,2.965,8.132c0,5.886-3.909,9.345-9.615,9.345h-12.58V8.001z M92.122,23.233h8.087
			c3.235,0,5.122-1.438,5.122-4.852c0-3.774-1.033-5.886-5.122-5.886h-8.087V23.233z M92.122,38.463h8.087
			c3.235,0,5.122-1.438,5.122-4.852c0-3.774-1.033-5.885-5.122-5.885h-8.087V38.463z"/>
		<path fill="#FFFFFF" d="M120.253,21.93c0-1.573,0.18-3.19,2.157-3.19c1.707,0,2.156,1.438,2.156,2.875v1.752l3.369-2.786
			c1.213-0.989,2.471-1.842,3.82-1.842h3.459c1.662,0,3.055,0.539,4.223,1.707c1.438,1.438,1.932,2.92,1.932,4.897
			c0,1.483-0.27,3.01-2.112,3.01c-1.573,0-2.201-1.258-2.201-2.651c0-0.719,0-1.258-0.449-1.887
			c-0.539-0.764-1.573-0.764-2.606-0.764h-1.258c-0.809,0-1.393,0.404-2.156,1.033l-6.021,4.987v10.918
			c0,1.483-0.314,2.965-2.156,2.965s-2.157-1.483-2.157-2.965V21.93z"/>
		<path fill="#FFFFFF" d="M159.18,42.956c-1.798,0-2.516,0-3.864-1.168l-1.842-1.617c-1.707-1.528-2.201-2.516-2.201-4.852v-8.312
			c0-2.291,0.314-3.639,2.111-5.167l1.528-1.303c2.022-1.752,3.01-1.797,4.762-1.797h3.954c2.112,0,3.1,0.225,4.762,1.573
			l1.752,1.393c1.977,1.573,2.246,3.235,2.246,5.616v3.459c0,2.471-0.404,3.19-2.965,3.19h-13.838v1.438
			c0,0.404,0.314,0.944,0.629,1.258l1.078,1.168c0.585,0.629,1.438,0.809,2.875,0.809h9.255c1.438,0,2.965,0.315,2.965,2.157
			c0,1.887-1.707,2.156-2.965,2.156H159.18z M155.586,29.657h12.49v-2.606c0-0.809,0.045-1.483-0.539-2.022l-1.662-1.438
			c-0.539-0.494-1.393-0.539-2.067-0.539h-3.64c-0.808,0-1.483,0-2.201,0.494l-1.483,1.078c-0.539,0.404-0.899,0.719-0.899,1.977
			V29.657z"/>
		<path fill="#FFFFFF" d="M189.45,23.053c-1.258,0-2.965-0.27-2.965-2.157c0-1.842,1.527-2.156,2.965-2.156h5.93
			c2.247,0,3.864,0.225,5.572,1.932c1.662,1.662,1.887,2.965,1.931,5.122l0.449,14.647c0.045,1.258-0.584,2.516-2.022,2.516
			c-1.123,0-2.246-0.943-2.201-2.156l-2.965,1.527c-1.213,0.629-1.258,0.629-2.651,0.629h-4.133c-1.932,0-3.325-0.225-4.897-1.528
			c-1.798-1.483-2.246-3.055-2.246-5.301V34.24c0-2.067,0.494-3.37,2.111-4.807c1.483-1.303,3.145-1.617,5.033-1.617h9.255v-0.989
			c0-3.235-0.718-3.774-3.819-3.774H189.45z M189.404,32.128c-1.168,0-2.875,0.314-2.875,1.887v2.875
			c0,1.438,1.752,1.752,2.786,1.752h4.762l4.763-2.471v-0.944c0-2.381-0.674-3.1-3.055-3.1H189.404z"/>
		<path fill="#FFFFFF" d="M213.138,28.759c0-2.651,0.494-3.954,2.561-5.661l3.19-2.651c2.021-1.662,3.054-1.707,5.571-1.707h6.829
			c1.438,0,2.965,0.315,2.965,2.156c0,1.887-1.707,2.157-2.965,2.157h-7.593c-0.854,0-1.707,0.449-2.471,1.078l-2.606,2.202
			c-0.674,0.539-1.168,0.988-1.168,1.842v5.347c0,0.854,0.494,1.303,1.168,1.842l2.606,2.202c0.764,0.629,1.617,1.078,2.471,1.078
			h7.593c1.258,0,2.965,0.27,2.965,2.157c0,1.842-1.527,2.156-2.965,2.156h-6.829c-2.517,0-3.55-0.045-5.571-1.707l-3.19-2.651
			c-2.067-1.707-2.561-3.01-2.561-5.661V28.759z"/>
		<path fill="#FFFFFF" d="M256.22,23.053c-0.449,0-0.898,0.135-1.347,0.404l-6.38,3.999v12.535c0,1.483-0.314,2.965-2.156,2.965
			s-2.156-1.483-2.156-2.965V12.809c0-1.483,0.314-2.965,2.156-2.965s2.156,1.483,2.156,2.965v9.66l3.505-2.291
			c1.123-0.719,2.426-1.438,3.863-1.438h2.875c0.854,0,2.381,0,4.179,1.573c1.931,1.662,1.841,3.504,1.931,5.841l0.449,13.568
			c0.045,1.528-0.18,3.235-2.112,3.235c-1.752,0-2.111-1.483-2.156-2.92l-0.449-13.299c-0.09-2.067,0.045-3.684-2.381-3.684H256.22z
			"/>
	</g>
</g>
</svg>
